M48
; DRILL file {KiCad (5.1.6)-1} date 09/22/20 23:21:33
; FORMAT={-:-/ absolute / inch / decimal}
; #@! TF.CreationDate,2020-09-22T23:21:33+09:00
; #@! TF.GenerationSoftware,Kicad,Pcbnew,(5.1.6)-1
FMAT,2
INCH
T1C0.0118
T2C0.0157
T3C0.0197
T4C0.0236
T5C0.0276
%
G90
G05
T1
X0.3839Y-0.0295
X0.3839Y-0.561
X0.3839Y-1.0925
X0.3839Y-1.624
X0.3839Y-2.1555
X0.3839Y-2.687
X0.3839Y-3.2185
X0.3937Y-0.2657
X0.3937Y-0.7972
X0.3937Y-1.3287
X0.3937Y-1.8602
X0.3937Y-2.3917
X0.3937Y-2.9232
X0.3937Y-3.4547
X0.4134Y-0.0295
X0.4134Y-0.561
X0.4134Y-1.0925
X0.4134Y-1.624
X0.4134Y-2.1555
X0.4134Y-2.687
X0.4134Y-3.2185
X0.5709Y-0.2559
X0.5709Y-0.7874
X0.5709Y-1.3189
X0.5709Y-1.8504
X0.5709Y-2.3819
X0.5709Y-2.9134
X0.5709Y-3.4449
X0.6102Y-0.2559
X0.6102Y-0.7874
X0.6102Y-1.3189
X0.6102Y-1.8504
X0.6102Y-2.3819
X0.6102Y-2.9134
X0.6102Y-3.4449
X1.0728Y-0.0295
X1.0728Y-0.561
X1.0728Y-1.0925
X1.0728Y-1.624
X1.0728Y-2.1555
X1.0728Y-2.687
X1.0728Y-3.2185
X1.0827Y-0.2657
X1.0827Y-0.7972
X1.0827Y-1.3287
X1.0827Y-1.8602
X1.0827Y-2.3917
X1.0827Y-2.9232
X1.0827Y-3.4547
X1.1024Y-0.0295
X1.1024Y-0.561
X1.1024Y-1.0925
X1.1024Y-1.624
X1.1024Y-2.1555
X1.1024Y-2.687
X1.1024Y-3.2185
X1.2598Y-0.2559
X1.2598Y-0.7874
X1.2598Y-1.3189
X1.2598Y-1.8504
X1.2598Y-2.3819
X1.2598Y-2.9134
X1.2598Y-3.4449
X1.2992Y-0.2559
X1.2992Y-0.7874
X1.2992Y-1.3189
X1.2992Y-1.8504
X1.2992Y-2.3819
X1.2992Y-2.9134
X1.2992Y-3.4449
X1.7618Y-0.0295
X1.7618Y-0.561
X1.7618Y-1.0925
X1.7618Y-1.624
X1.7618Y-2.1555
X1.7618Y-2.687
X1.7618Y-3.2185
X1.7717Y-0.2657
X1.7717Y-0.7972
X1.7717Y-1.3287
X1.7717Y-1.8602
X1.7717Y-2.3917
X1.7717Y-2.9232
X1.7717Y-3.4547
X1.7913Y-0.0295
X1.7913Y-0.561
X1.7913Y-1.0925
X1.7913Y-1.624
X1.7913Y-2.1555
X1.7913Y-2.687
X1.7913Y-3.2185
X1.9488Y-0.2559
X1.9488Y-0.7874
X1.9488Y-1.3189
X1.9488Y-1.8504
X1.9488Y-2.3819
X1.9488Y-2.9134
X1.9488Y-3.4449
X1.9882Y-0.2559
X1.9882Y-0.7874
X1.9882Y-1.3189
X1.9882Y-1.8504
X1.9882Y-2.3819
X1.9882Y-2.9134
X1.9882Y-3.4449
X2.4508Y-0.0295
X2.4508Y-0.561
X2.4508Y-1.0925
X2.4508Y-1.624
X2.4508Y-2.1555
X2.4508Y-2.687
X2.4508Y-3.2185
X2.4606Y-0.2657
X2.4606Y-0.7972
X2.4606Y-1.3287
X2.4606Y-1.8602
X2.4606Y-2.3917
X2.4606Y-2.9232
X2.4606Y-3.4547
X2.4803Y-0.0295
X2.4803Y-0.561
X2.4803Y-1.0925
X2.4803Y-1.624
X2.4803Y-2.1555
X2.4803Y-2.687
X2.4803Y-3.2185
X2.6378Y-0.2559
X2.6378Y-0.7874
X2.6378Y-1.3189
X2.6378Y-1.8504
X2.6378Y-2.3819
X2.6378Y-2.9134
X2.6378Y-3.4449
X2.6772Y-0.2559
X2.6772Y-0.7874
X2.6772Y-1.3189
X2.6772Y-1.8504
X2.6772Y-2.3819
X2.6772Y-2.9134
X2.6772Y-3.4449
X3.1398Y-0.0295
X3.1398Y-0.561
X3.1398Y-1.0925
X3.1398Y-1.624
X3.1398Y-2.1555
X3.1398Y-2.687
X3.1398Y-3.2185
X3.1496Y-0.2657
X3.1496Y-0.7972
X3.1496Y-1.3287
X3.1496Y-1.8602
X3.1496Y-2.3917
X3.1496Y-2.9232
X3.1496Y-3.4547
X3.1693Y-0.0295
X3.1693Y-0.561
X3.1693Y-1.0925
X3.1693Y-1.624
X3.1693Y-2.1555
X3.1693Y-2.687
X3.1693Y-3.2185
X3.3268Y-0.2559
X3.3268Y-0.7874
X3.3268Y-1.3189
X3.3268Y-1.8504
X3.3268Y-2.3819
X3.3268Y-2.9134
X3.3268Y-3.4449
X3.3661Y-0.2559
X3.3661Y-0.7874
X3.3661Y-1.3189
X3.3661Y-1.8504
X3.3661Y-2.3819
X3.3661Y-2.9134
X3.3661Y-3.4449
T2
X0.6496Y-0.4035
X0.6496Y-0.935
X0.6496Y-1.4665
X0.6496Y-1.998
X0.6496Y-2.5295
X0.6496Y-3.061
X0.6496Y-3.5925
X1.3386Y-0.4035
X1.3386Y-0.935
X1.3386Y-1.4665
X1.3386Y-1.998
X1.3386Y-2.5295
X1.3386Y-3.061
X1.3386Y-3.5925
X2.0276Y-0.4035
X2.0276Y-0.935
X2.0276Y-1.4665
X2.0276Y-1.998
X2.0276Y-2.5295
X2.0276Y-3.061
X2.0276Y-3.5925
X2.7165Y-0.4035
X2.7165Y-0.935
X2.7165Y-1.4665
X2.7165Y-1.998
X2.7165Y-2.5295
X2.7165Y-3.061
X2.7165Y-3.5925
X3.4055Y-0.4035
X3.4055Y-0.935
X3.4055Y-1.4665
X3.4055Y-1.998
X3.4055Y-2.5295
X3.4055Y-3.061
X3.4055Y-3.5925
T3
X0.5709Y-3.2283
X3.3268Y-0.9449
X1.9488Y-0.4134
X1.9488Y-0.5709
X3.3268Y-1.4764
X0.5709Y-1.6339
X1.9488Y-3.6024
X1.2598Y-1.1024
X1.9488Y-2.0079
X0.5709Y-0.4134
X1.2598Y-3.2283
X1.9488Y-3.0709
X3.3268Y-2.1654
X2.6378Y-0.4134
X2.6378Y-1.1024
X1.9488Y-0.9449
X1.2598Y-1.6339
X0.5709Y-2.0079
X0.5709Y-0.5709
X1.2598Y-0.0394
X2.6378Y-2.5394
X2.6378Y-3.2283
X1.9488Y-1.4764
X1.2598Y-2.6969
X3.3268Y-0.4134
X1.2598Y-0.5709
X0.5709Y-0.9449
X1.9488Y-2.1654
X1.2598Y-2.0079
X0.5709Y-2.1654
X2.6378Y-3.0709
X2.6378Y-0.0394
X0.5709Y-1.4764
X1.9488Y-3.2283
X1.2598Y-1.4764
X2.6378Y-0.5709
X1.9488Y-0.0394
X0.5709Y-3.6024
X3.3268Y-1.6339
X2.6378Y-2.0079
X0.5709Y-3.0709
X1.9488Y-2.6969
X2.6378Y-2.1654
X1.2598Y-3.0709
X3.3268Y-2.0079
X1.9488Y-1.6339
X2.6378Y-0.9449
X1.2598Y-2.1654
X1.2598Y-2.5394
X3.3268Y-0.0394
X1.2598Y-0.4134
X0.5709Y-0.0394
X3.3268Y-3.2283
X0.5709Y-2.6969
X1.2598Y-3.6024
X3.3268Y-0.5709
X2.6378Y-1.4764
X0.5709Y-1.1024
X3.3268Y-3.6024
X2.6378Y-3.6024
X2.6378Y-2.6969
X1.2598Y-0.9449
X3.3268Y-2.6969
X3.3268Y-3.0709
X1.9488Y-1.1024
X3.3268Y-2.5394
X2.6378Y-1.6339
X1.9488Y-2.5394
X3.3268Y-1.1024
X0.5709Y-2.5394
T4
X1.3878Y-0.623
X1.3878Y-0.673
X1.3878Y-0.723
X1.3878Y-0.773
X1.3878Y-0.823
X1.3878Y-0.873
X1.3878Y-3.2805
X1.3878Y-3.3305
X1.3878Y-3.3805
X1.3878Y-3.4305
X1.3878Y-3.4805
X1.3878Y-3.5305
X2.7657Y-1.1545
X2.7657Y-1.2045
X2.7657Y-1.2545
X2.7657Y-1.3045
X2.7657Y-1.3545
X2.7657Y-1.4045
X2.7657Y-2.2175
X2.7657Y-2.2675
X2.7657Y-2.3175
X2.7657Y-2.3675
X2.7657Y-2.4175
X2.7657Y-2.4675
X1.3878Y-0.0915
X1.3878Y-0.1415
X1.3878Y-0.1915
X1.3878Y-0.2415
X1.3878Y-0.2915
X1.3878Y-0.3415
X0.6988Y-3.2805
X0.6988Y-3.3305
X0.6988Y-3.3805
X0.6988Y-3.4305
X0.6988Y-3.4805
X0.6988Y-3.5305
X3.4547Y-2.2175
X3.4547Y-2.2675
X3.4547Y-2.3175
X3.4547Y-2.3675
X3.4547Y-2.4175
X3.4547Y-2.4675
X3.4547Y-3.2805
X3.4547Y-3.3305
X3.4547Y-3.3805
X3.4547Y-3.4305
X3.4547Y-3.4805
X3.4547Y-3.5305
X3.4547Y-1.1545
X3.4547Y-1.2045
X3.4547Y-1.2545
X3.4547Y-1.3045
X3.4547Y-1.3545
X3.4547Y-1.4045
X0.6988Y-2.749
X0.6988Y-2.799
X0.6988Y-2.849
X0.6988Y-2.899
X0.6988Y-2.949
X0.6988Y-2.999
X2.0768Y-0.0915
X2.0768Y-0.1415
X2.0768Y-0.1915
X2.0768Y-0.2415
X2.0768Y-0.2915
X2.0768Y-0.3415
X2.7657Y-0.0915
X2.7657Y-0.1415
X2.7657Y-0.1915
X2.7657Y-0.2415
X2.7657Y-0.2915
X2.7657Y-0.3415
X2.0768Y-0.623
X2.0768Y-0.673
X2.0768Y-0.723
X2.0768Y-0.773
X2.0768Y-0.823
X2.0768Y-0.873
X0.6988Y-1.1545
X0.6988Y-1.2045
X0.6988Y-1.2545
X0.6988Y-1.3045
X0.6988Y-1.3545
X0.6988Y-1.4045
X1.3878Y-1.686
X1.3878Y-1.736
X1.3878Y-1.786
X1.3878Y-1.836
X1.3878Y-1.886
X1.3878Y-1.936
X1.3878Y-2.749
X1.3878Y-2.799
X1.3878Y-2.849
X1.3878Y-2.899
X1.3878Y-2.949
X1.3878Y-2.999
X2.7657Y-0.623
X2.7657Y-0.673
X2.7657Y-0.723
X2.7657Y-0.773
X2.7657Y-0.823
X2.7657Y-0.873
X3.4547Y-2.749
X3.4547Y-2.799
X3.4547Y-2.849
X3.4547Y-2.899
X3.4547Y-2.949
X3.4547Y-2.999
X0.6988Y-0.0915
X0.6988Y-0.1415
X0.6988Y-0.1915
X0.6988Y-0.2415
X0.6988Y-0.2915
X0.6988Y-0.3415
X0.6988Y-1.686
X0.6988Y-1.736
X0.6988Y-1.786
X0.6988Y-1.836
X0.6988Y-1.886
X0.6988Y-1.936
X2.0768Y-3.2805
X2.0768Y-3.3305
X2.0768Y-3.3805
X2.0768Y-3.4305
X2.0768Y-3.4805
X2.0768Y-3.5305
X2.7657Y-3.2805
X2.7657Y-3.3305
X2.7657Y-3.3805
X2.7657Y-3.4305
X2.7657Y-3.4805
X2.7657Y-3.5305
X3.4547Y-1.686
X3.4547Y-1.736
X3.4547Y-1.786
X3.4547Y-1.836
X3.4547Y-1.886
X3.4547Y-1.936
X1.3878Y-1.1545
X1.3878Y-1.2045
X1.3878Y-1.2545
X1.3878Y-1.3045
X1.3878Y-1.3545
X1.3878Y-1.4045
X2.0768Y-2.749
X2.0768Y-2.799
X2.0768Y-2.849
X2.0768Y-2.899
X2.0768Y-2.949
X2.0768Y-2.999
X1.3878Y-2.2175
X1.3878Y-2.2675
X1.3878Y-2.3175
X1.3878Y-2.3675
X1.3878Y-2.4175
X1.3878Y-2.4675
X3.4547Y-0.623
X3.4547Y-0.673
X3.4547Y-0.723
X3.4547Y-0.773
X3.4547Y-0.823
X3.4547Y-0.873
X2.0768Y-1.1545
X2.0768Y-1.2045
X2.0768Y-1.2545
X2.0768Y-1.3045
X2.0768Y-1.3545
X2.0768Y-1.4045
X2.0768Y-1.686
X2.0768Y-1.736
X2.0768Y-1.786
X2.0768Y-1.836
X2.0768Y-1.886
X2.0768Y-1.936
X2.7657Y-2.749
X2.7657Y-2.799
X2.7657Y-2.849
X2.7657Y-2.899
X2.7657Y-2.949
X2.7657Y-2.999
X0.6988Y-0.623
X0.6988Y-0.673
X0.6988Y-0.723
X0.6988Y-0.773
X0.6988Y-0.823
X0.6988Y-0.873
X2.7657Y-1.686
X2.7657Y-1.736
X2.7657Y-1.786
X2.7657Y-1.836
X2.7657Y-1.886
X2.7657Y-1.936
X2.0768Y-2.2175
X2.0768Y-2.2675
X2.0768Y-2.3175
X2.0768Y-2.3675
X2.0768Y-2.4175
X2.0768Y-2.4675
X0.6988Y-2.2175
X0.6988Y-2.2675
X0.6988Y-2.3175
X0.6988Y-2.3675
X0.6988Y-2.4175
X0.6988Y-2.4675
X3.4547Y-0.0915
X3.4547Y-0.1415
X3.4547Y-0.1915
X3.4547Y-0.2415
X3.4547Y-0.2915
X3.4547Y-0.3415
T5
X0.3445Y-0.6004
X1.7224Y-1.1319
X0.3445Y-2.7264
X2.4114Y-2.1949
X1.0335Y-0.3839
X3.1004Y-0.9154
X3.1004Y-1.9783
X1.7224Y-1.4469
X1.0335Y-0.6004
X0.3445Y-2.1949
X0.3445Y-1.6634
X3.1004Y-2.1949
X1.7224Y-0.3839
X1.7224Y-1.9783
X3.1004Y-2.5098
X1.0335Y-1.4469
X3.1004Y-0.0689
X1.0335Y-1.9783
X3.1004Y-0.6004
X2.4114Y-2.7264
X1.0335Y-1.6634
X1.0335Y-2.7264
X3.1004Y-0.3839
X1.7224Y-3.5728
X1.0335Y-3.0413
X1.7224Y-2.5098
X2.4114Y-0.3839
X1.7224Y-0.6004
X1.0335Y-2.1949
X1.7224Y-1.6634
X0.3445Y-3.2579
X1.0335Y-0.9154
X2.4114Y-3.0413
X0.3445Y-3.5728
X2.4114Y-3.5728
X0.3445Y-1.4469
X2.4114Y-1.4469
X0.3445Y-0.0689
X0.3445Y-0.3839
X2.4114Y-0.6004
X3.1004Y-1.6634
X1.7224Y-2.1949
X1.7224Y-3.2579
X1.7224Y-0.9154
X2.4114Y-2.5098
X3.1004Y-3.5728
X0.3445Y-0.9154
X1.0335Y-2.5098
X1.0335Y-0.0689
X1.7224Y-0.0689
X1.0335Y-1.1319
X3.1004Y-2.7264
X2.4114Y-1.6634
X1.0335Y-3.2579
X2.4114Y-0.9154
X0.3445Y-2.5098
X1.0335Y-3.5728
X3.1004Y-1.4469
X0.3445Y-3.0413
X2.4114Y-0.0689
X0.3445Y-1.1319
X2.4114Y-1.1319
X3.1004Y-1.1319
X1.7224Y-2.7264
X3.1004Y-3.2579
X0.3445Y-1.9783
X2.4114Y-1.9783
X3.1004Y-3.0413
X2.4114Y-3.2579
X1.7224Y-3.0413
T0
M30
