%TF.GenerationSoftware,KiCad,Pcbnew,(5.1.6)-1*%
%TF.CreationDate,2020-09-22T23:21:28+09:00*%
%TF.ProjectId,funcdecoder_tomix_pcb_0773_0507_rev0_panelize_94_5mm_92_5mm,66756e63-6465-4636-9f64-65725f746f6d,rev?*%
%TF.SameCoordinates,PX66ff300PY337f980*%
%TF.FileFunction,Soldermask,Bot*%
%TF.FilePolarity,Negative*%
%FSLAX46Y46*%
G04 Gerber Fmt 4.6, Leading zero omitted, Abs format (unit mm)*
G04 Created by KiCad (PCBNEW (5.1.6)-1) date 2020-09-22 23:21:28*
%MOMM*%
%LPD*%
G01*
G04 APERTURE LIST*
%ADD10R,0.800000X1.000000*%
%ADD11R,0.850000X1.400000*%
%ADD12R,0.400000X0.600000*%
%ADD13R,0.900000X0.700000*%
%ADD14R,1.100000X1.100000*%
%ADD15R,1.050000X1.050000*%
%ADD16R,1.000000X0.800000*%
%ADD17R,1.300000X1.300000*%
%ADD18R,0.900000X0.900000*%
%ADD19R,0.700000X0.750000*%
%ADD20R,0.900000X1.000000*%
%ADD21R,1.300000X1.000000*%
G04 APERTURE END LIST*
D10*
%TO.C,R1*%
X82800000Y-88000000D03*
X81200000Y-88000000D03*
%TD*%
%TO.C,R1*%
X65300000Y-88000000D03*
X63700000Y-88000000D03*
%TD*%
%TO.C,R1*%
X47800000Y-88000000D03*
X46200000Y-88000000D03*
%TD*%
%TO.C,R1*%
X30300000Y-88000000D03*
X28700000Y-88000000D03*
%TD*%
%TO.C,R1*%
X12800000Y-88000000D03*
X11200000Y-88000000D03*
%TD*%
%TO.C,R1*%
X82800000Y-74500000D03*
X81200000Y-74500000D03*
%TD*%
%TO.C,R1*%
X65300000Y-74500000D03*
X63700000Y-74500000D03*
%TD*%
%TO.C,R1*%
X47800000Y-74500000D03*
X46200000Y-74500000D03*
%TD*%
%TO.C,R1*%
X30300000Y-74500000D03*
X28700000Y-74500000D03*
%TD*%
%TO.C,R1*%
X12800000Y-74500000D03*
X11200000Y-74500000D03*
%TD*%
%TO.C,R1*%
X82800000Y-61000000D03*
X81200000Y-61000000D03*
%TD*%
%TO.C,R1*%
X65300000Y-61000000D03*
X63700000Y-61000000D03*
%TD*%
%TO.C,R1*%
X47800000Y-61000000D03*
X46200000Y-61000000D03*
%TD*%
%TO.C,R1*%
X30300000Y-61000000D03*
X28700000Y-61000000D03*
%TD*%
%TO.C,R1*%
X12800000Y-61000000D03*
X11200000Y-61000000D03*
%TD*%
%TO.C,R1*%
X82800000Y-47500000D03*
X81200000Y-47500000D03*
%TD*%
%TO.C,R1*%
X65300000Y-47500000D03*
X63700000Y-47500000D03*
%TD*%
%TO.C,R1*%
X47800000Y-47500000D03*
X46200000Y-47500000D03*
%TD*%
%TO.C,R1*%
X30300000Y-47500000D03*
X28700000Y-47500000D03*
%TD*%
%TO.C,R1*%
X12800000Y-47500000D03*
X11200000Y-47500000D03*
%TD*%
%TO.C,R1*%
X82800000Y-34000000D03*
X81200000Y-34000000D03*
%TD*%
%TO.C,R1*%
X65300000Y-34000000D03*
X63700000Y-34000000D03*
%TD*%
%TO.C,R1*%
X47800000Y-34000000D03*
X46200000Y-34000000D03*
%TD*%
%TO.C,R1*%
X30300000Y-34000000D03*
X28700000Y-34000000D03*
%TD*%
%TO.C,R1*%
X12800000Y-34000000D03*
X11200000Y-34000000D03*
%TD*%
%TO.C,R1*%
X82800000Y-20500000D03*
X81200000Y-20500000D03*
%TD*%
%TO.C,R1*%
X65300000Y-20500000D03*
X63700000Y-20500000D03*
%TD*%
%TO.C,R1*%
X47800000Y-20500000D03*
X46200000Y-20500000D03*
%TD*%
%TO.C,R1*%
X30300000Y-20500000D03*
X28700000Y-20500000D03*
%TD*%
%TO.C,R1*%
X12800000Y-20500000D03*
X11200000Y-20500000D03*
%TD*%
%TO.C,R1*%
X82800000Y-7000000D03*
X81200000Y-7000000D03*
%TD*%
%TO.C,R1*%
X65300000Y-7000000D03*
X63700000Y-7000000D03*
%TD*%
%TO.C,R1*%
X47800000Y-7000000D03*
X46200000Y-7000000D03*
%TD*%
%TO.C,R1*%
X30300000Y-7000000D03*
X28700000Y-7000000D03*
%TD*%
D11*
%TO.C,D4*%
X78375000Y-88050000D03*
X78375000Y-85450000D03*
D12*
X78250000Y-87300000D03*
X78250000Y-86200000D03*
%TD*%
D11*
%TO.C,D4*%
X60875000Y-88050000D03*
X60875000Y-85450000D03*
D12*
X60750000Y-87300000D03*
X60750000Y-86200000D03*
%TD*%
D11*
%TO.C,D4*%
X43375000Y-88050000D03*
X43375000Y-85450000D03*
D12*
X43250000Y-87300000D03*
X43250000Y-86200000D03*
%TD*%
D11*
%TO.C,D4*%
X25875000Y-88050000D03*
X25875000Y-85450000D03*
D12*
X25750000Y-87300000D03*
X25750000Y-86200000D03*
%TD*%
D11*
%TO.C,D4*%
X8375000Y-88050000D03*
X8375000Y-85450000D03*
D12*
X8250000Y-87300000D03*
X8250000Y-86200000D03*
%TD*%
D11*
%TO.C,D4*%
X78375000Y-74550000D03*
X78375000Y-71950000D03*
D12*
X78250000Y-73800000D03*
X78250000Y-72700000D03*
%TD*%
D11*
%TO.C,D4*%
X60875000Y-74550000D03*
X60875000Y-71950000D03*
D12*
X60750000Y-73800000D03*
X60750000Y-72700000D03*
%TD*%
D11*
%TO.C,D4*%
X43375000Y-74550000D03*
X43375000Y-71950000D03*
D12*
X43250000Y-73800000D03*
X43250000Y-72700000D03*
%TD*%
D11*
%TO.C,D4*%
X25875000Y-74550000D03*
X25875000Y-71950000D03*
D12*
X25750000Y-73800000D03*
X25750000Y-72700000D03*
%TD*%
D11*
%TO.C,D4*%
X8375000Y-74550000D03*
X8375000Y-71950000D03*
D12*
X8250000Y-73800000D03*
X8250000Y-72700000D03*
%TD*%
D11*
%TO.C,D4*%
X78375000Y-61050000D03*
X78375000Y-58450000D03*
D12*
X78250000Y-60300000D03*
X78250000Y-59200000D03*
%TD*%
D11*
%TO.C,D4*%
X60875000Y-61050000D03*
X60875000Y-58450000D03*
D12*
X60750000Y-60300000D03*
X60750000Y-59200000D03*
%TD*%
D11*
%TO.C,D4*%
X43375000Y-61050000D03*
X43375000Y-58450000D03*
D12*
X43250000Y-60300000D03*
X43250000Y-59200000D03*
%TD*%
D11*
%TO.C,D4*%
X25875000Y-61050000D03*
X25875000Y-58450000D03*
D12*
X25750000Y-60300000D03*
X25750000Y-59200000D03*
%TD*%
D11*
%TO.C,D4*%
X8375000Y-61050000D03*
X8375000Y-58450000D03*
D12*
X8250000Y-60300000D03*
X8250000Y-59200000D03*
%TD*%
D11*
%TO.C,D4*%
X78375000Y-47550000D03*
X78375000Y-44950000D03*
D12*
X78250000Y-46800000D03*
X78250000Y-45700000D03*
%TD*%
D11*
%TO.C,D4*%
X60875000Y-47550000D03*
X60875000Y-44950000D03*
D12*
X60750000Y-46800000D03*
X60750000Y-45700000D03*
%TD*%
D11*
%TO.C,D4*%
X43375000Y-47550000D03*
X43375000Y-44950000D03*
D12*
X43250000Y-46800000D03*
X43250000Y-45700000D03*
%TD*%
D11*
%TO.C,D4*%
X25875000Y-47550000D03*
X25875000Y-44950000D03*
D12*
X25750000Y-46800000D03*
X25750000Y-45700000D03*
%TD*%
D11*
%TO.C,D4*%
X8375000Y-47550000D03*
X8375000Y-44950000D03*
D12*
X8250000Y-46800000D03*
X8250000Y-45700000D03*
%TD*%
D11*
%TO.C,D4*%
X78375000Y-34050000D03*
X78375000Y-31450000D03*
D12*
X78250000Y-33300000D03*
X78250000Y-32200000D03*
%TD*%
D11*
%TO.C,D4*%
X60875000Y-34050000D03*
X60875000Y-31450000D03*
D12*
X60750000Y-33300000D03*
X60750000Y-32200000D03*
%TD*%
D11*
%TO.C,D4*%
X43375000Y-34050000D03*
X43375000Y-31450000D03*
D12*
X43250000Y-33300000D03*
X43250000Y-32200000D03*
%TD*%
D11*
%TO.C,D4*%
X25875000Y-34050000D03*
X25875000Y-31450000D03*
D12*
X25750000Y-33300000D03*
X25750000Y-32200000D03*
%TD*%
D11*
%TO.C,D4*%
X8375000Y-34050000D03*
X8375000Y-31450000D03*
D12*
X8250000Y-33300000D03*
X8250000Y-32200000D03*
%TD*%
D11*
%TO.C,D4*%
X78375000Y-20550000D03*
X78375000Y-17950000D03*
D12*
X78250000Y-19800000D03*
X78250000Y-18700000D03*
%TD*%
D11*
%TO.C,D4*%
X60875000Y-20550000D03*
X60875000Y-17950000D03*
D12*
X60750000Y-19800000D03*
X60750000Y-18700000D03*
%TD*%
D11*
%TO.C,D4*%
X43375000Y-20550000D03*
X43375000Y-17950000D03*
D12*
X43250000Y-19800000D03*
X43250000Y-18700000D03*
%TD*%
D11*
%TO.C,D4*%
X25875000Y-20550000D03*
X25875000Y-17950000D03*
D12*
X25750000Y-19800000D03*
X25750000Y-18700000D03*
%TD*%
D11*
%TO.C,D4*%
X8375000Y-20550000D03*
X8375000Y-17950000D03*
D12*
X8250000Y-19800000D03*
X8250000Y-18700000D03*
%TD*%
D11*
%TO.C,D4*%
X78375000Y-7050000D03*
X78375000Y-4450000D03*
D12*
X78250000Y-6300000D03*
X78250000Y-5200000D03*
%TD*%
D11*
%TO.C,D4*%
X60875000Y-7050000D03*
X60875000Y-4450000D03*
D12*
X60750000Y-6300000D03*
X60750000Y-5200000D03*
%TD*%
D11*
%TO.C,D4*%
X43375000Y-7050000D03*
X43375000Y-4450000D03*
D12*
X43250000Y-6300000D03*
X43250000Y-5200000D03*
%TD*%
D11*
%TO.C,D4*%
X25875000Y-7050000D03*
X25875000Y-4450000D03*
D12*
X25750000Y-6300000D03*
X25750000Y-5200000D03*
%TD*%
D13*
%TO.C,Q1*%
X81300000Y-90000000D03*
X83200000Y-90650000D03*
X83200000Y-89350000D03*
%TD*%
%TO.C,Q1*%
X63800000Y-90000000D03*
X65700000Y-90650000D03*
X65700000Y-89350000D03*
%TD*%
%TO.C,Q1*%
X46300000Y-90000000D03*
X48200000Y-90650000D03*
X48200000Y-89350000D03*
%TD*%
%TO.C,Q1*%
X28800000Y-90000000D03*
X30700000Y-90650000D03*
X30700000Y-89350000D03*
%TD*%
%TO.C,Q1*%
X11300000Y-90000000D03*
X13200000Y-90650000D03*
X13200000Y-89350000D03*
%TD*%
%TO.C,Q1*%
X81300000Y-76500000D03*
X83200000Y-77150000D03*
X83200000Y-75850000D03*
%TD*%
%TO.C,Q1*%
X63800000Y-76500000D03*
X65700000Y-77150000D03*
X65700000Y-75850000D03*
%TD*%
%TO.C,Q1*%
X46300000Y-76500000D03*
X48200000Y-77150000D03*
X48200000Y-75850000D03*
%TD*%
%TO.C,Q1*%
X28800000Y-76500000D03*
X30700000Y-77150000D03*
X30700000Y-75850000D03*
%TD*%
%TO.C,Q1*%
X11300000Y-76500000D03*
X13200000Y-77150000D03*
X13200000Y-75850000D03*
%TD*%
%TO.C,Q1*%
X81300000Y-63000000D03*
X83200000Y-63650000D03*
X83200000Y-62350000D03*
%TD*%
%TO.C,Q1*%
X63800000Y-63000000D03*
X65700000Y-63650000D03*
X65700000Y-62350000D03*
%TD*%
%TO.C,Q1*%
X46300000Y-63000000D03*
X48200000Y-63650000D03*
X48200000Y-62350000D03*
%TD*%
%TO.C,Q1*%
X28800000Y-63000000D03*
X30700000Y-63650000D03*
X30700000Y-62350000D03*
%TD*%
%TO.C,Q1*%
X11300000Y-63000000D03*
X13200000Y-63650000D03*
X13200000Y-62350000D03*
%TD*%
%TO.C,Q1*%
X81300000Y-49500000D03*
X83200000Y-50150000D03*
X83200000Y-48850000D03*
%TD*%
%TO.C,Q1*%
X63800000Y-49500000D03*
X65700000Y-50150000D03*
X65700000Y-48850000D03*
%TD*%
%TO.C,Q1*%
X46300000Y-49500000D03*
X48200000Y-50150000D03*
X48200000Y-48850000D03*
%TD*%
%TO.C,Q1*%
X28800000Y-49500000D03*
X30700000Y-50150000D03*
X30700000Y-48850000D03*
%TD*%
%TO.C,Q1*%
X11300000Y-49500000D03*
X13200000Y-50150000D03*
X13200000Y-48850000D03*
%TD*%
%TO.C,Q1*%
X81300000Y-36000000D03*
X83200000Y-36650000D03*
X83200000Y-35350000D03*
%TD*%
%TO.C,Q1*%
X63800000Y-36000000D03*
X65700000Y-36650000D03*
X65700000Y-35350000D03*
%TD*%
%TO.C,Q1*%
X46300000Y-36000000D03*
X48200000Y-36650000D03*
X48200000Y-35350000D03*
%TD*%
%TO.C,Q1*%
X28800000Y-36000000D03*
X30700000Y-36650000D03*
X30700000Y-35350000D03*
%TD*%
%TO.C,Q1*%
X11300000Y-36000000D03*
X13200000Y-36650000D03*
X13200000Y-35350000D03*
%TD*%
%TO.C,Q1*%
X81300000Y-22500000D03*
X83200000Y-23150000D03*
X83200000Y-21850000D03*
%TD*%
%TO.C,Q1*%
X63800000Y-22500000D03*
X65700000Y-23150000D03*
X65700000Y-21850000D03*
%TD*%
%TO.C,Q1*%
X46300000Y-22500000D03*
X48200000Y-23150000D03*
X48200000Y-21850000D03*
%TD*%
%TO.C,Q1*%
X28800000Y-22500000D03*
X30700000Y-23150000D03*
X30700000Y-21850000D03*
%TD*%
%TO.C,Q1*%
X11300000Y-22500000D03*
X13200000Y-23150000D03*
X13200000Y-21850000D03*
%TD*%
%TO.C,Q1*%
X81300000Y-9000000D03*
X83200000Y-9650000D03*
X83200000Y-8350000D03*
%TD*%
%TO.C,Q1*%
X63800000Y-9000000D03*
X65700000Y-9650000D03*
X65700000Y-8350000D03*
%TD*%
%TO.C,Q1*%
X46300000Y-9000000D03*
X48200000Y-9650000D03*
X48200000Y-8350000D03*
%TD*%
%TO.C,Q1*%
X28800000Y-9000000D03*
X30700000Y-9650000D03*
X30700000Y-8350000D03*
%TD*%
D14*
%TO.C,J2*%
X84500000Y-82000000D03*
%TD*%
%TO.C,J2*%
X67000000Y-82000000D03*
%TD*%
%TO.C,J2*%
X49500000Y-82000000D03*
%TD*%
%TO.C,J2*%
X32000000Y-82000000D03*
%TD*%
%TO.C,J2*%
X14500000Y-82000000D03*
%TD*%
%TO.C,J2*%
X84500000Y-68500000D03*
%TD*%
%TO.C,J2*%
X67000000Y-68500000D03*
%TD*%
%TO.C,J2*%
X49500000Y-68500000D03*
%TD*%
%TO.C,J2*%
X32000000Y-68500000D03*
%TD*%
%TO.C,J2*%
X14500000Y-68500000D03*
%TD*%
%TO.C,J2*%
X84500000Y-55000000D03*
%TD*%
%TO.C,J2*%
X67000000Y-55000000D03*
%TD*%
%TO.C,J2*%
X49500000Y-55000000D03*
%TD*%
%TO.C,J2*%
X32000000Y-55000000D03*
%TD*%
%TO.C,J2*%
X14500000Y-55000000D03*
%TD*%
%TO.C,J2*%
X84500000Y-41500000D03*
%TD*%
%TO.C,J2*%
X67000000Y-41500000D03*
%TD*%
%TO.C,J2*%
X49500000Y-41500000D03*
%TD*%
%TO.C,J2*%
X32000000Y-41500000D03*
%TD*%
%TO.C,J2*%
X14500000Y-41500000D03*
%TD*%
%TO.C,J2*%
X84500000Y-28000000D03*
%TD*%
%TO.C,J2*%
X67000000Y-28000000D03*
%TD*%
%TO.C,J2*%
X49500000Y-28000000D03*
%TD*%
%TO.C,J2*%
X32000000Y-28000000D03*
%TD*%
%TO.C,J2*%
X14500000Y-28000000D03*
%TD*%
%TO.C,J2*%
X84500000Y-14500000D03*
%TD*%
%TO.C,J2*%
X67000000Y-14500000D03*
%TD*%
%TO.C,J2*%
X49500000Y-14500000D03*
%TD*%
%TO.C,J2*%
X32000000Y-14500000D03*
%TD*%
%TO.C,J2*%
X14500000Y-14500000D03*
%TD*%
%TO.C,J2*%
X84500000Y-1000000D03*
%TD*%
%TO.C,J2*%
X67000000Y-1000000D03*
%TD*%
%TO.C,J2*%
X49500000Y-1000000D03*
%TD*%
%TO.C,J2*%
X32000000Y-1000000D03*
%TD*%
D15*
%TO.C,J1*%
X87750000Y-83325000D03*
X87750000Y-84595000D03*
X87750000Y-85865000D03*
X87750000Y-87135000D03*
X87750000Y-88405000D03*
X87750000Y-89675000D03*
%TD*%
%TO.C,J1*%
X70250000Y-83325000D03*
X70250000Y-84595000D03*
X70250000Y-85865000D03*
X70250000Y-87135000D03*
X70250000Y-88405000D03*
X70250000Y-89675000D03*
%TD*%
%TO.C,J1*%
X52750000Y-83325000D03*
X52750000Y-84595000D03*
X52750000Y-85865000D03*
X52750000Y-87135000D03*
X52750000Y-88405000D03*
X52750000Y-89675000D03*
%TD*%
%TO.C,J1*%
X35250000Y-83325000D03*
X35250000Y-84595000D03*
X35250000Y-85865000D03*
X35250000Y-87135000D03*
X35250000Y-88405000D03*
X35250000Y-89675000D03*
%TD*%
%TO.C,J1*%
X17750000Y-83325000D03*
X17750000Y-84595000D03*
X17750000Y-85865000D03*
X17750000Y-87135000D03*
X17750000Y-88405000D03*
X17750000Y-89675000D03*
%TD*%
%TO.C,J1*%
X87750000Y-69825000D03*
X87750000Y-71095000D03*
X87750000Y-72365000D03*
X87750000Y-73635000D03*
X87750000Y-74905000D03*
X87750000Y-76175000D03*
%TD*%
%TO.C,J1*%
X70250000Y-69825000D03*
X70250000Y-71095000D03*
X70250000Y-72365000D03*
X70250000Y-73635000D03*
X70250000Y-74905000D03*
X70250000Y-76175000D03*
%TD*%
%TO.C,J1*%
X52750000Y-69825000D03*
X52750000Y-71095000D03*
X52750000Y-72365000D03*
X52750000Y-73635000D03*
X52750000Y-74905000D03*
X52750000Y-76175000D03*
%TD*%
%TO.C,J1*%
X35250000Y-69825000D03*
X35250000Y-71095000D03*
X35250000Y-72365000D03*
X35250000Y-73635000D03*
X35250000Y-74905000D03*
X35250000Y-76175000D03*
%TD*%
%TO.C,J1*%
X17750000Y-69825000D03*
X17750000Y-71095000D03*
X17750000Y-72365000D03*
X17750000Y-73635000D03*
X17750000Y-74905000D03*
X17750000Y-76175000D03*
%TD*%
%TO.C,J1*%
X87750000Y-56325000D03*
X87750000Y-57595000D03*
X87750000Y-58865000D03*
X87750000Y-60135000D03*
X87750000Y-61405000D03*
X87750000Y-62675000D03*
%TD*%
%TO.C,J1*%
X70250000Y-56325000D03*
X70250000Y-57595000D03*
X70250000Y-58865000D03*
X70250000Y-60135000D03*
X70250000Y-61405000D03*
X70250000Y-62675000D03*
%TD*%
%TO.C,J1*%
X52750000Y-56325000D03*
X52750000Y-57595000D03*
X52750000Y-58865000D03*
X52750000Y-60135000D03*
X52750000Y-61405000D03*
X52750000Y-62675000D03*
%TD*%
%TO.C,J1*%
X35250000Y-56325000D03*
X35250000Y-57595000D03*
X35250000Y-58865000D03*
X35250000Y-60135000D03*
X35250000Y-61405000D03*
X35250000Y-62675000D03*
%TD*%
%TO.C,J1*%
X17750000Y-56325000D03*
X17750000Y-57595000D03*
X17750000Y-58865000D03*
X17750000Y-60135000D03*
X17750000Y-61405000D03*
X17750000Y-62675000D03*
%TD*%
%TO.C,J1*%
X87750000Y-42825000D03*
X87750000Y-44095000D03*
X87750000Y-45365000D03*
X87750000Y-46635000D03*
X87750000Y-47905000D03*
X87750000Y-49175000D03*
%TD*%
%TO.C,J1*%
X70250000Y-42825000D03*
X70250000Y-44095000D03*
X70250000Y-45365000D03*
X70250000Y-46635000D03*
X70250000Y-47905000D03*
X70250000Y-49175000D03*
%TD*%
%TO.C,J1*%
X52750000Y-42825000D03*
X52750000Y-44095000D03*
X52750000Y-45365000D03*
X52750000Y-46635000D03*
X52750000Y-47905000D03*
X52750000Y-49175000D03*
%TD*%
%TO.C,J1*%
X35250000Y-42825000D03*
X35250000Y-44095000D03*
X35250000Y-45365000D03*
X35250000Y-46635000D03*
X35250000Y-47905000D03*
X35250000Y-49175000D03*
%TD*%
%TO.C,J1*%
X17750000Y-42825000D03*
X17750000Y-44095000D03*
X17750000Y-45365000D03*
X17750000Y-46635000D03*
X17750000Y-47905000D03*
X17750000Y-49175000D03*
%TD*%
%TO.C,J1*%
X87750000Y-29325000D03*
X87750000Y-30595000D03*
X87750000Y-31865000D03*
X87750000Y-33135000D03*
X87750000Y-34405000D03*
X87750000Y-35675000D03*
%TD*%
%TO.C,J1*%
X70250000Y-29325000D03*
X70250000Y-30595000D03*
X70250000Y-31865000D03*
X70250000Y-33135000D03*
X70250000Y-34405000D03*
X70250000Y-35675000D03*
%TD*%
%TO.C,J1*%
X52750000Y-29325000D03*
X52750000Y-30595000D03*
X52750000Y-31865000D03*
X52750000Y-33135000D03*
X52750000Y-34405000D03*
X52750000Y-35675000D03*
%TD*%
%TO.C,J1*%
X35250000Y-29325000D03*
X35250000Y-30595000D03*
X35250000Y-31865000D03*
X35250000Y-33135000D03*
X35250000Y-34405000D03*
X35250000Y-35675000D03*
%TD*%
%TO.C,J1*%
X17750000Y-29325000D03*
X17750000Y-30595000D03*
X17750000Y-31865000D03*
X17750000Y-33135000D03*
X17750000Y-34405000D03*
X17750000Y-35675000D03*
%TD*%
%TO.C,J1*%
X87750000Y-15825000D03*
X87750000Y-17095000D03*
X87750000Y-18365000D03*
X87750000Y-19635000D03*
X87750000Y-20905000D03*
X87750000Y-22175000D03*
%TD*%
%TO.C,J1*%
X70250000Y-15825000D03*
X70250000Y-17095000D03*
X70250000Y-18365000D03*
X70250000Y-19635000D03*
X70250000Y-20905000D03*
X70250000Y-22175000D03*
%TD*%
%TO.C,J1*%
X52750000Y-15825000D03*
X52750000Y-17095000D03*
X52750000Y-18365000D03*
X52750000Y-19635000D03*
X52750000Y-20905000D03*
X52750000Y-22175000D03*
%TD*%
%TO.C,J1*%
X35250000Y-15825000D03*
X35250000Y-17095000D03*
X35250000Y-18365000D03*
X35250000Y-19635000D03*
X35250000Y-20905000D03*
X35250000Y-22175000D03*
%TD*%
%TO.C,J1*%
X17750000Y-15825000D03*
X17750000Y-17095000D03*
X17750000Y-18365000D03*
X17750000Y-19635000D03*
X17750000Y-20905000D03*
X17750000Y-22175000D03*
%TD*%
%TO.C,J1*%
X87750000Y-2325000D03*
X87750000Y-3595000D03*
X87750000Y-4865000D03*
X87750000Y-6135000D03*
X87750000Y-7405000D03*
X87750000Y-8675000D03*
%TD*%
%TO.C,J1*%
X70250000Y-2325000D03*
X70250000Y-3595000D03*
X70250000Y-4865000D03*
X70250000Y-6135000D03*
X70250000Y-7405000D03*
X70250000Y-8675000D03*
%TD*%
%TO.C,J1*%
X52750000Y-2325000D03*
X52750000Y-3595000D03*
X52750000Y-4865000D03*
X52750000Y-6135000D03*
X52750000Y-7405000D03*
X52750000Y-8675000D03*
%TD*%
%TO.C,J1*%
X35250000Y-2325000D03*
X35250000Y-3595000D03*
X35250000Y-4865000D03*
X35250000Y-6135000D03*
X35250000Y-7405000D03*
X35250000Y-8675000D03*
%TD*%
D14*
%TO.C,J3*%
X84500000Y-91500000D03*
%TD*%
%TO.C,J3*%
X67000000Y-91500000D03*
%TD*%
%TO.C,J3*%
X49500000Y-91500000D03*
%TD*%
%TO.C,J3*%
X32000000Y-91500000D03*
%TD*%
%TO.C,J3*%
X14500000Y-91500000D03*
%TD*%
%TO.C,J3*%
X84500000Y-78000000D03*
%TD*%
%TO.C,J3*%
X67000000Y-78000000D03*
%TD*%
%TO.C,J3*%
X49500000Y-78000000D03*
%TD*%
%TO.C,J3*%
X32000000Y-78000000D03*
%TD*%
%TO.C,J3*%
X14500000Y-78000000D03*
%TD*%
%TO.C,J3*%
X84500000Y-64500000D03*
%TD*%
%TO.C,J3*%
X67000000Y-64500000D03*
%TD*%
%TO.C,J3*%
X49500000Y-64500000D03*
%TD*%
%TO.C,J3*%
X32000000Y-64500000D03*
%TD*%
%TO.C,J3*%
X14500000Y-64500000D03*
%TD*%
%TO.C,J3*%
X84500000Y-51000000D03*
%TD*%
%TO.C,J3*%
X67000000Y-51000000D03*
%TD*%
%TO.C,J3*%
X49500000Y-51000000D03*
%TD*%
%TO.C,J3*%
X32000000Y-51000000D03*
%TD*%
%TO.C,J3*%
X14500000Y-51000000D03*
%TD*%
%TO.C,J3*%
X84500000Y-37500000D03*
%TD*%
%TO.C,J3*%
X67000000Y-37500000D03*
%TD*%
%TO.C,J3*%
X49500000Y-37500000D03*
%TD*%
%TO.C,J3*%
X32000000Y-37500000D03*
%TD*%
%TO.C,J3*%
X14500000Y-37500000D03*
%TD*%
%TO.C,J3*%
X84500000Y-24000000D03*
%TD*%
%TO.C,J3*%
X67000000Y-24000000D03*
%TD*%
%TO.C,J3*%
X49500000Y-24000000D03*
%TD*%
%TO.C,J3*%
X32000000Y-24000000D03*
%TD*%
%TO.C,J3*%
X14500000Y-24000000D03*
%TD*%
%TO.C,J3*%
X84500000Y-10500000D03*
%TD*%
%TO.C,J3*%
X67000000Y-10500000D03*
%TD*%
%TO.C,J3*%
X49500000Y-10500000D03*
%TD*%
%TO.C,J3*%
X32000000Y-10500000D03*
%TD*%
D16*
%TO.C,R4*%
X86250000Y-82450000D03*
X86250000Y-84050000D03*
%TD*%
%TO.C,R4*%
X68750000Y-82450000D03*
X68750000Y-84050000D03*
%TD*%
%TO.C,R4*%
X51250000Y-82450000D03*
X51250000Y-84050000D03*
%TD*%
%TO.C,R4*%
X33750000Y-82450000D03*
X33750000Y-84050000D03*
%TD*%
%TO.C,R4*%
X16250000Y-82450000D03*
X16250000Y-84050000D03*
%TD*%
%TO.C,R4*%
X86250000Y-68950000D03*
X86250000Y-70550000D03*
%TD*%
%TO.C,R4*%
X68750000Y-68950000D03*
X68750000Y-70550000D03*
%TD*%
%TO.C,R4*%
X51250000Y-68950000D03*
X51250000Y-70550000D03*
%TD*%
%TO.C,R4*%
X33750000Y-68950000D03*
X33750000Y-70550000D03*
%TD*%
%TO.C,R4*%
X16250000Y-68950000D03*
X16250000Y-70550000D03*
%TD*%
%TO.C,R4*%
X86250000Y-55450000D03*
X86250000Y-57050000D03*
%TD*%
%TO.C,R4*%
X68750000Y-55450000D03*
X68750000Y-57050000D03*
%TD*%
%TO.C,R4*%
X51250000Y-55450000D03*
X51250000Y-57050000D03*
%TD*%
%TO.C,R4*%
X33750000Y-55450000D03*
X33750000Y-57050000D03*
%TD*%
%TO.C,R4*%
X16250000Y-55450000D03*
X16250000Y-57050000D03*
%TD*%
%TO.C,R4*%
X86250000Y-41950000D03*
X86250000Y-43550000D03*
%TD*%
%TO.C,R4*%
X68750000Y-41950000D03*
X68750000Y-43550000D03*
%TD*%
%TO.C,R4*%
X51250000Y-41950000D03*
X51250000Y-43550000D03*
%TD*%
%TO.C,R4*%
X33750000Y-41950000D03*
X33750000Y-43550000D03*
%TD*%
%TO.C,R4*%
X16250000Y-41950000D03*
X16250000Y-43550000D03*
%TD*%
%TO.C,R4*%
X86250000Y-28450000D03*
X86250000Y-30050000D03*
%TD*%
%TO.C,R4*%
X68750000Y-28450000D03*
X68750000Y-30050000D03*
%TD*%
%TO.C,R4*%
X51250000Y-28450000D03*
X51250000Y-30050000D03*
%TD*%
%TO.C,R4*%
X33750000Y-28450000D03*
X33750000Y-30050000D03*
%TD*%
%TO.C,R4*%
X16250000Y-28450000D03*
X16250000Y-30050000D03*
%TD*%
%TO.C,R4*%
X86250000Y-14950000D03*
X86250000Y-16550000D03*
%TD*%
%TO.C,R4*%
X68750000Y-14950000D03*
X68750000Y-16550000D03*
%TD*%
%TO.C,R4*%
X51250000Y-14950000D03*
X51250000Y-16550000D03*
%TD*%
%TO.C,R4*%
X33750000Y-14950000D03*
X33750000Y-16550000D03*
%TD*%
%TO.C,R4*%
X16250000Y-14950000D03*
X16250000Y-16550000D03*
%TD*%
%TO.C,R4*%
X86250000Y-1450000D03*
X86250000Y-3050000D03*
%TD*%
%TO.C,R4*%
X68750000Y-1450000D03*
X68750000Y-3050000D03*
%TD*%
%TO.C,R4*%
X51250000Y-1450000D03*
X51250000Y-3050000D03*
%TD*%
%TO.C,R4*%
X33750000Y-1450000D03*
X33750000Y-3050000D03*
%TD*%
D17*
%TO.C,PAD1*%
X78750000Y-90750000D03*
%TD*%
%TO.C,PAD1*%
X61250000Y-90750000D03*
%TD*%
%TO.C,PAD1*%
X43750000Y-90750000D03*
%TD*%
%TO.C,PAD1*%
X26250000Y-90750000D03*
%TD*%
%TO.C,PAD1*%
X8750000Y-90750000D03*
%TD*%
%TO.C,PAD1*%
X78750000Y-77250000D03*
%TD*%
%TO.C,PAD1*%
X61250000Y-77250000D03*
%TD*%
%TO.C,PAD1*%
X43750000Y-77250000D03*
%TD*%
%TO.C,PAD1*%
X26250000Y-77250000D03*
%TD*%
%TO.C,PAD1*%
X8750000Y-77250000D03*
%TD*%
%TO.C,PAD1*%
X78750000Y-63750000D03*
%TD*%
%TO.C,PAD1*%
X61250000Y-63750000D03*
%TD*%
%TO.C,PAD1*%
X43750000Y-63750000D03*
%TD*%
%TO.C,PAD1*%
X26250000Y-63750000D03*
%TD*%
%TO.C,PAD1*%
X8750000Y-63750000D03*
%TD*%
%TO.C,PAD1*%
X78750000Y-50250000D03*
%TD*%
%TO.C,PAD1*%
X61250000Y-50250000D03*
%TD*%
%TO.C,PAD1*%
X43750000Y-50250000D03*
%TD*%
%TO.C,PAD1*%
X26250000Y-50250000D03*
%TD*%
%TO.C,PAD1*%
X8750000Y-50250000D03*
%TD*%
%TO.C,PAD1*%
X78750000Y-36750000D03*
%TD*%
%TO.C,PAD1*%
X61250000Y-36750000D03*
%TD*%
%TO.C,PAD1*%
X43750000Y-36750000D03*
%TD*%
%TO.C,PAD1*%
X26250000Y-36750000D03*
%TD*%
%TO.C,PAD1*%
X8750000Y-36750000D03*
%TD*%
%TO.C,PAD1*%
X78750000Y-23250000D03*
%TD*%
%TO.C,PAD1*%
X61250000Y-23250000D03*
%TD*%
%TO.C,PAD1*%
X43750000Y-23250000D03*
%TD*%
%TO.C,PAD1*%
X26250000Y-23250000D03*
%TD*%
%TO.C,PAD1*%
X8750000Y-23250000D03*
%TD*%
%TO.C,PAD1*%
X78750000Y-9750000D03*
%TD*%
%TO.C,PAD1*%
X61250000Y-9750000D03*
%TD*%
%TO.C,PAD1*%
X43750000Y-9750000D03*
%TD*%
%TO.C,PAD1*%
X26250000Y-9750000D03*
%TD*%
%TO.C,PAD2*%
X78750000Y-82750000D03*
%TD*%
%TO.C,PAD2*%
X61250000Y-82750000D03*
%TD*%
%TO.C,PAD2*%
X43750000Y-82750000D03*
%TD*%
%TO.C,PAD2*%
X26250000Y-82750000D03*
%TD*%
%TO.C,PAD2*%
X8750000Y-82750000D03*
%TD*%
%TO.C,PAD2*%
X78750000Y-69250000D03*
%TD*%
%TO.C,PAD2*%
X61250000Y-69250000D03*
%TD*%
%TO.C,PAD2*%
X43750000Y-69250000D03*
%TD*%
%TO.C,PAD2*%
X26250000Y-69250000D03*
%TD*%
%TO.C,PAD2*%
X8750000Y-69250000D03*
%TD*%
%TO.C,PAD2*%
X78750000Y-55750000D03*
%TD*%
%TO.C,PAD2*%
X61250000Y-55750000D03*
%TD*%
%TO.C,PAD2*%
X43750000Y-55750000D03*
%TD*%
%TO.C,PAD2*%
X26250000Y-55750000D03*
%TD*%
%TO.C,PAD2*%
X8750000Y-55750000D03*
%TD*%
%TO.C,PAD2*%
X78750000Y-42250000D03*
%TD*%
%TO.C,PAD2*%
X61250000Y-42250000D03*
%TD*%
%TO.C,PAD2*%
X43750000Y-42250000D03*
%TD*%
%TO.C,PAD2*%
X26250000Y-42250000D03*
%TD*%
%TO.C,PAD2*%
X8750000Y-42250000D03*
%TD*%
%TO.C,PAD2*%
X78750000Y-28750000D03*
%TD*%
%TO.C,PAD2*%
X61250000Y-28750000D03*
%TD*%
%TO.C,PAD2*%
X43750000Y-28750000D03*
%TD*%
%TO.C,PAD2*%
X26250000Y-28750000D03*
%TD*%
%TO.C,PAD2*%
X8750000Y-28750000D03*
%TD*%
%TO.C,PAD2*%
X78750000Y-15250000D03*
%TD*%
%TO.C,PAD2*%
X61250000Y-15250000D03*
%TD*%
%TO.C,PAD2*%
X43750000Y-15250000D03*
%TD*%
%TO.C,PAD2*%
X26250000Y-15250000D03*
%TD*%
%TO.C,PAD2*%
X8750000Y-15250000D03*
%TD*%
%TO.C,PAD2*%
X78750000Y-1750000D03*
%TD*%
%TO.C,PAD2*%
X61250000Y-1750000D03*
%TD*%
%TO.C,PAD2*%
X43750000Y-1750000D03*
%TD*%
%TO.C,PAD2*%
X26250000Y-1750000D03*
%TD*%
D18*
%TO.C,C2*%
X84500000Y-88475000D03*
X84500000Y-90025000D03*
%TD*%
%TO.C,C2*%
X67000000Y-88475000D03*
X67000000Y-90025000D03*
%TD*%
%TO.C,C2*%
X49500000Y-88475000D03*
X49500000Y-90025000D03*
%TD*%
%TO.C,C2*%
X32000000Y-88475000D03*
X32000000Y-90025000D03*
%TD*%
%TO.C,C2*%
X14500000Y-88475000D03*
X14500000Y-90025000D03*
%TD*%
%TO.C,C2*%
X84500000Y-74975000D03*
X84500000Y-76525000D03*
%TD*%
%TO.C,C2*%
X67000000Y-74975000D03*
X67000000Y-76525000D03*
%TD*%
%TO.C,C2*%
X49500000Y-74975000D03*
X49500000Y-76525000D03*
%TD*%
%TO.C,C2*%
X32000000Y-74975000D03*
X32000000Y-76525000D03*
%TD*%
%TO.C,C2*%
X14500000Y-74975000D03*
X14500000Y-76525000D03*
%TD*%
%TO.C,C2*%
X84500000Y-61475000D03*
X84500000Y-63025000D03*
%TD*%
%TO.C,C2*%
X67000000Y-61475000D03*
X67000000Y-63025000D03*
%TD*%
%TO.C,C2*%
X49500000Y-61475000D03*
X49500000Y-63025000D03*
%TD*%
%TO.C,C2*%
X32000000Y-61475000D03*
X32000000Y-63025000D03*
%TD*%
%TO.C,C2*%
X14500000Y-61475000D03*
X14500000Y-63025000D03*
%TD*%
%TO.C,C2*%
X84500000Y-47975000D03*
X84500000Y-49525000D03*
%TD*%
%TO.C,C2*%
X67000000Y-47975000D03*
X67000000Y-49525000D03*
%TD*%
%TO.C,C2*%
X49500000Y-47975000D03*
X49500000Y-49525000D03*
%TD*%
%TO.C,C2*%
X32000000Y-47975000D03*
X32000000Y-49525000D03*
%TD*%
%TO.C,C2*%
X14500000Y-47975000D03*
X14500000Y-49525000D03*
%TD*%
%TO.C,C2*%
X84500000Y-34475000D03*
X84500000Y-36025000D03*
%TD*%
%TO.C,C2*%
X67000000Y-34475000D03*
X67000000Y-36025000D03*
%TD*%
%TO.C,C2*%
X49500000Y-34475000D03*
X49500000Y-36025000D03*
%TD*%
%TO.C,C2*%
X32000000Y-34475000D03*
X32000000Y-36025000D03*
%TD*%
%TO.C,C2*%
X14500000Y-34475000D03*
X14500000Y-36025000D03*
%TD*%
%TO.C,C2*%
X84500000Y-20975000D03*
X84500000Y-22525000D03*
%TD*%
%TO.C,C2*%
X67000000Y-20975000D03*
X67000000Y-22525000D03*
%TD*%
%TO.C,C2*%
X49500000Y-20975000D03*
X49500000Y-22525000D03*
%TD*%
%TO.C,C2*%
X32000000Y-20975000D03*
X32000000Y-22525000D03*
%TD*%
%TO.C,C2*%
X14500000Y-20975000D03*
X14500000Y-22525000D03*
%TD*%
%TO.C,C2*%
X84500000Y-7475000D03*
X84500000Y-9025000D03*
%TD*%
%TO.C,C2*%
X67000000Y-7475000D03*
X67000000Y-9025000D03*
%TD*%
%TO.C,C2*%
X49500000Y-7475000D03*
X49500000Y-9025000D03*
%TD*%
%TO.C,C2*%
X32000000Y-7475000D03*
X32000000Y-9025000D03*
%TD*%
D19*
%TO.C,C1*%
X80000000Y-83275000D03*
X80000000Y-84225000D03*
%TD*%
%TO.C,C1*%
X62500000Y-83275000D03*
X62500000Y-84225000D03*
%TD*%
%TO.C,C1*%
X45000000Y-83275000D03*
X45000000Y-84225000D03*
%TD*%
%TO.C,C1*%
X27500000Y-83275000D03*
X27500000Y-84225000D03*
%TD*%
%TO.C,C1*%
X10000000Y-83275000D03*
X10000000Y-84225000D03*
%TD*%
%TO.C,C1*%
X80000000Y-69775000D03*
X80000000Y-70725000D03*
%TD*%
%TO.C,C1*%
X62500000Y-69775000D03*
X62500000Y-70725000D03*
%TD*%
%TO.C,C1*%
X45000000Y-69775000D03*
X45000000Y-70725000D03*
%TD*%
%TO.C,C1*%
X27500000Y-69775000D03*
X27500000Y-70725000D03*
%TD*%
%TO.C,C1*%
X10000000Y-69775000D03*
X10000000Y-70725000D03*
%TD*%
%TO.C,C1*%
X80000000Y-56275000D03*
X80000000Y-57225000D03*
%TD*%
%TO.C,C1*%
X62500000Y-56275000D03*
X62500000Y-57225000D03*
%TD*%
%TO.C,C1*%
X45000000Y-56275000D03*
X45000000Y-57225000D03*
%TD*%
%TO.C,C1*%
X27500000Y-56275000D03*
X27500000Y-57225000D03*
%TD*%
%TO.C,C1*%
X10000000Y-56275000D03*
X10000000Y-57225000D03*
%TD*%
%TO.C,C1*%
X80000000Y-42775000D03*
X80000000Y-43725000D03*
%TD*%
%TO.C,C1*%
X62500000Y-42775000D03*
X62500000Y-43725000D03*
%TD*%
%TO.C,C1*%
X45000000Y-42775000D03*
X45000000Y-43725000D03*
%TD*%
%TO.C,C1*%
X27500000Y-42775000D03*
X27500000Y-43725000D03*
%TD*%
%TO.C,C1*%
X10000000Y-42775000D03*
X10000000Y-43725000D03*
%TD*%
%TO.C,C1*%
X80000000Y-29275000D03*
X80000000Y-30225000D03*
%TD*%
%TO.C,C1*%
X62500000Y-29275000D03*
X62500000Y-30225000D03*
%TD*%
%TO.C,C1*%
X45000000Y-29275000D03*
X45000000Y-30225000D03*
%TD*%
%TO.C,C1*%
X27500000Y-29275000D03*
X27500000Y-30225000D03*
%TD*%
%TO.C,C1*%
X10000000Y-29275000D03*
X10000000Y-30225000D03*
%TD*%
%TO.C,C1*%
X80000000Y-15775000D03*
X80000000Y-16725000D03*
%TD*%
%TO.C,C1*%
X62500000Y-15775000D03*
X62500000Y-16725000D03*
%TD*%
%TO.C,C1*%
X45000000Y-15775000D03*
X45000000Y-16725000D03*
%TD*%
%TO.C,C1*%
X27500000Y-15775000D03*
X27500000Y-16725000D03*
%TD*%
%TO.C,C1*%
X10000000Y-15775000D03*
X10000000Y-16725000D03*
%TD*%
%TO.C,C1*%
X80000000Y-2275000D03*
X80000000Y-3225000D03*
%TD*%
%TO.C,C1*%
X62500000Y-2275000D03*
X62500000Y-3225000D03*
%TD*%
%TO.C,C1*%
X45000000Y-2275000D03*
X45000000Y-3225000D03*
%TD*%
%TO.C,C1*%
X27500000Y-2275000D03*
X27500000Y-3225000D03*
%TD*%
D20*
%TO.C,D2*%
X83300000Y-86250000D03*
X81200000Y-86250000D03*
%TD*%
%TO.C,D2*%
X65800000Y-86250000D03*
X63700000Y-86250000D03*
%TD*%
%TO.C,D2*%
X48300000Y-86250000D03*
X46200000Y-86250000D03*
%TD*%
%TO.C,D2*%
X30800000Y-86250000D03*
X28700000Y-86250000D03*
%TD*%
%TO.C,D2*%
X13300000Y-86250000D03*
X11200000Y-86250000D03*
%TD*%
%TO.C,D2*%
X83300000Y-72750000D03*
X81200000Y-72750000D03*
%TD*%
%TO.C,D2*%
X65800000Y-72750000D03*
X63700000Y-72750000D03*
%TD*%
%TO.C,D2*%
X48300000Y-72750000D03*
X46200000Y-72750000D03*
%TD*%
%TO.C,D2*%
X30800000Y-72750000D03*
X28700000Y-72750000D03*
%TD*%
%TO.C,D2*%
X13300000Y-72750000D03*
X11200000Y-72750000D03*
%TD*%
%TO.C,D2*%
X83300000Y-59250000D03*
X81200000Y-59250000D03*
%TD*%
%TO.C,D2*%
X65800000Y-59250000D03*
X63700000Y-59250000D03*
%TD*%
%TO.C,D2*%
X48300000Y-59250000D03*
X46200000Y-59250000D03*
%TD*%
%TO.C,D2*%
X30800000Y-59250000D03*
X28700000Y-59250000D03*
%TD*%
%TO.C,D2*%
X13300000Y-59250000D03*
X11200000Y-59250000D03*
%TD*%
%TO.C,D2*%
X83300000Y-45750000D03*
X81200000Y-45750000D03*
%TD*%
%TO.C,D2*%
X65800000Y-45750000D03*
X63700000Y-45750000D03*
%TD*%
%TO.C,D2*%
X48300000Y-45750000D03*
X46200000Y-45750000D03*
%TD*%
%TO.C,D2*%
X30800000Y-45750000D03*
X28700000Y-45750000D03*
%TD*%
%TO.C,D2*%
X13300000Y-45750000D03*
X11200000Y-45750000D03*
%TD*%
%TO.C,D2*%
X83300000Y-32250000D03*
X81200000Y-32250000D03*
%TD*%
%TO.C,D2*%
X65800000Y-32250000D03*
X63700000Y-32250000D03*
%TD*%
%TO.C,D2*%
X48300000Y-32250000D03*
X46200000Y-32250000D03*
%TD*%
%TO.C,D2*%
X30800000Y-32250000D03*
X28700000Y-32250000D03*
%TD*%
%TO.C,D2*%
X13300000Y-32250000D03*
X11200000Y-32250000D03*
%TD*%
%TO.C,D2*%
X83300000Y-18750000D03*
X81200000Y-18750000D03*
%TD*%
%TO.C,D2*%
X65800000Y-18750000D03*
X63700000Y-18750000D03*
%TD*%
%TO.C,D2*%
X48300000Y-18750000D03*
X46200000Y-18750000D03*
%TD*%
%TO.C,D2*%
X30800000Y-18750000D03*
X28700000Y-18750000D03*
%TD*%
%TO.C,D2*%
X13300000Y-18750000D03*
X11200000Y-18750000D03*
%TD*%
%TO.C,D2*%
X83300000Y-5250000D03*
X81200000Y-5250000D03*
%TD*%
%TO.C,D2*%
X65800000Y-5250000D03*
X63700000Y-5250000D03*
%TD*%
%TO.C,D2*%
X48300000Y-5250000D03*
X46200000Y-5250000D03*
%TD*%
%TO.C,D2*%
X30800000Y-5250000D03*
X28700000Y-5250000D03*
%TD*%
%TO.C,D1*%
X81250000Y-84500000D03*
X83250000Y-84500000D03*
X83250000Y-82500000D03*
D21*
X81450000Y-82500000D03*
%TD*%
D20*
%TO.C,D1*%
X63750000Y-84500000D03*
X65750000Y-84500000D03*
X65750000Y-82500000D03*
D21*
X63950000Y-82500000D03*
%TD*%
D20*
%TO.C,D1*%
X46250000Y-84500000D03*
X48250000Y-84500000D03*
X48250000Y-82500000D03*
D21*
X46450000Y-82500000D03*
%TD*%
D20*
%TO.C,D1*%
X28750000Y-84500000D03*
X30750000Y-84500000D03*
X30750000Y-82500000D03*
D21*
X28950000Y-82500000D03*
%TD*%
D20*
%TO.C,D1*%
X11250000Y-84500000D03*
X13250000Y-84500000D03*
X13250000Y-82500000D03*
D21*
X11450000Y-82500000D03*
%TD*%
D20*
%TO.C,D1*%
X81250000Y-71000000D03*
X83250000Y-71000000D03*
X83250000Y-69000000D03*
D21*
X81450000Y-69000000D03*
%TD*%
D20*
%TO.C,D1*%
X63750000Y-71000000D03*
X65750000Y-71000000D03*
X65750000Y-69000000D03*
D21*
X63950000Y-69000000D03*
%TD*%
D20*
%TO.C,D1*%
X46250000Y-71000000D03*
X48250000Y-71000000D03*
X48250000Y-69000000D03*
D21*
X46450000Y-69000000D03*
%TD*%
D20*
%TO.C,D1*%
X28750000Y-71000000D03*
X30750000Y-71000000D03*
X30750000Y-69000000D03*
D21*
X28950000Y-69000000D03*
%TD*%
D20*
%TO.C,D1*%
X11250000Y-71000000D03*
X13250000Y-71000000D03*
X13250000Y-69000000D03*
D21*
X11450000Y-69000000D03*
%TD*%
D20*
%TO.C,D1*%
X81250000Y-57500000D03*
X83250000Y-57500000D03*
X83250000Y-55500000D03*
D21*
X81450000Y-55500000D03*
%TD*%
D20*
%TO.C,D1*%
X63750000Y-57500000D03*
X65750000Y-57500000D03*
X65750000Y-55500000D03*
D21*
X63950000Y-55500000D03*
%TD*%
D20*
%TO.C,D1*%
X46250000Y-57500000D03*
X48250000Y-57500000D03*
X48250000Y-55500000D03*
D21*
X46450000Y-55500000D03*
%TD*%
D20*
%TO.C,D1*%
X28750000Y-57500000D03*
X30750000Y-57500000D03*
X30750000Y-55500000D03*
D21*
X28950000Y-55500000D03*
%TD*%
D20*
%TO.C,D1*%
X11250000Y-57500000D03*
X13250000Y-57500000D03*
X13250000Y-55500000D03*
D21*
X11450000Y-55500000D03*
%TD*%
D20*
%TO.C,D1*%
X81250000Y-44000000D03*
X83250000Y-44000000D03*
X83250000Y-42000000D03*
D21*
X81450000Y-42000000D03*
%TD*%
D20*
%TO.C,D1*%
X63750000Y-44000000D03*
X65750000Y-44000000D03*
X65750000Y-42000000D03*
D21*
X63950000Y-42000000D03*
%TD*%
D20*
%TO.C,D1*%
X46250000Y-44000000D03*
X48250000Y-44000000D03*
X48250000Y-42000000D03*
D21*
X46450000Y-42000000D03*
%TD*%
D20*
%TO.C,D1*%
X28750000Y-44000000D03*
X30750000Y-44000000D03*
X30750000Y-42000000D03*
D21*
X28950000Y-42000000D03*
%TD*%
D20*
%TO.C,D1*%
X11250000Y-44000000D03*
X13250000Y-44000000D03*
X13250000Y-42000000D03*
D21*
X11450000Y-42000000D03*
%TD*%
D20*
%TO.C,D1*%
X81250000Y-30500000D03*
X83250000Y-30500000D03*
X83250000Y-28500000D03*
D21*
X81450000Y-28500000D03*
%TD*%
D20*
%TO.C,D1*%
X63750000Y-30500000D03*
X65750000Y-30500000D03*
X65750000Y-28500000D03*
D21*
X63950000Y-28500000D03*
%TD*%
D20*
%TO.C,D1*%
X46250000Y-30500000D03*
X48250000Y-30500000D03*
X48250000Y-28500000D03*
D21*
X46450000Y-28500000D03*
%TD*%
D20*
%TO.C,D1*%
X28750000Y-30500000D03*
X30750000Y-30500000D03*
X30750000Y-28500000D03*
D21*
X28950000Y-28500000D03*
%TD*%
D20*
%TO.C,D1*%
X11250000Y-30500000D03*
X13250000Y-30500000D03*
X13250000Y-28500000D03*
D21*
X11450000Y-28500000D03*
%TD*%
D20*
%TO.C,D1*%
X81250000Y-17000000D03*
X83250000Y-17000000D03*
X83250000Y-15000000D03*
D21*
X81450000Y-15000000D03*
%TD*%
D20*
%TO.C,D1*%
X63750000Y-17000000D03*
X65750000Y-17000000D03*
X65750000Y-15000000D03*
D21*
X63950000Y-15000000D03*
%TD*%
D20*
%TO.C,D1*%
X46250000Y-17000000D03*
X48250000Y-17000000D03*
X48250000Y-15000000D03*
D21*
X46450000Y-15000000D03*
%TD*%
D20*
%TO.C,D1*%
X28750000Y-17000000D03*
X30750000Y-17000000D03*
X30750000Y-15000000D03*
D21*
X28950000Y-15000000D03*
%TD*%
D20*
%TO.C,D1*%
X11250000Y-17000000D03*
X13250000Y-17000000D03*
X13250000Y-15000000D03*
D21*
X11450000Y-15000000D03*
%TD*%
D20*
%TO.C,D1*%
X81250000Y-3500000D03*
X83250000Y-3500000D03*
X83250000Y-1500000D03*
D21*
X81450000Y-1500000D03*
%TD*%
D20*
%TO.C,D1*%
X63750000Y-3500000D03*
X65750000Y-3500000D03*
X65750000Y-1500000D03*
D21*
X63950000Y-1500000D03*
%TD*%
D20*
%TO.C,D1*%
X46250000Y-3500000D03*
X48250000Y-3500000D03*
X48250000Y-1500000D03*
D21*
X46450000Y-1500000D03*
%TD*%
D20*
%TO.C,D1*%
X28750000Y-3500000D03*
X30750000Y-3500000D03*
X30750000Y-1500000D03*
D21*
X28950000Y-1500000D03*
%TD*%
D19*
%TO.C,C1*%
X10000000Y-3225000D03*
X10000000Y-2275000D03*
%TD*%
D18*
%TO.C,C2*%
X14500000Y-9025000D03*
X14500000Y-7475000D03*
%TD*%
D21*
%TO.C,D1*%
X11450000Y-1500000D03*
D20*
X13250000Y-1500000D03*
X13250000Y-3500000D03*
X11250000Y-3500000D03*
%TD*%
%TO.C,D2*%
X11200000Y-5250000D03*
X13300000Y-5250000D03*
%TD*%
D14*
%TO.C,J2*%
X14500000Y-1000000D03*
%TD*%
%TO.C,J3*%
X14500000Y-10500000D03*
%TD*%
D17*
%TO.C,PAD1*%
X8750000Y-9750000D03*
%TD*%
%TO.C,PAD2*%
X8750000Y-1750000D03*
%TD*%
D13*
%TO.C,Q1*%
X13200000Y-8350000D03*
X13200000Y-9650000D03*
X11300000Y-9000000D03*
%TD*%
D10*
%TO.C,R1*%
X11200000Y-7000000D03*
X12800000Y-7000000D03*
%TD*%
D16*
%TO.C,R4*%
X16250000Y-3050000D03*
X16250000Y-1450000D03*
%TD*%
D15*
%TO.C,J1*%
X17750000Y-8675000D03*
X17750000Y-7405000D03*
X17750000Y-6135000D03*
X17750000Y-4865000D03*
X17750000Y-3595000D03*
X17750000Y-2325000D03*
%TD*%
D12*
%TO.C,D4*%
X8250000Y-5200000D03*
X8250000Y-6300000D03*
D11*
X8375000Y-4450000D03*
X8375000Y-7050000D03*
%TD*%
M02*
